<svg id="Layer_1" data-name="Layer 1" xmlns="http://www.w3.org/2000/svg" xmlns:xlink="http://www.w3.org/1999/xlink" viewBox="0 0 200 200"><defs><style>.cls-1{fill:none;}.cls-2{fill:#10172f;}.cls-3{fill:url(#cc-pixel-navy-dot_2);}.cls-4{fill:#fff9e6;}</style><pattern id="cc-pixel-navy-dot_2" data-name="cc-pixel-navy-dot 2" width="4" height="4" patternUnits="userSpaceOnUse" viewBox="0 0 4 4"><rect class="cls-1" width="4" height="4"/><rect class="cls-2" width="1" height="1"/><rect class="cls-2" x="2" y="2" width="1" height="1"/></pattern></defs><path class="cls-3" d="M76.4,72.93l-.71-8.42a26.38,26.38,0,0,1-4.88-1.83L65.38,69,57,62.9l4.56-7.6a28,28,0,0,1-2.71-4.1l-8.46,2-3.18-9.84,8.44-3.58c0-.48,0-1,0-1.45a27.58,27.58,0,0,1,.2-3.23l-8.26-3.5,3.18-9.85,9,2.12a27.16,27.16,0,0,1,2.77-3.67l-4.66-7.77,8.33-6.09,6,7a26.52,26.52,0,0,1,4.48-1.43L77.47,3H87.78l.75,8.84a26.66,26.66,0,0,1,4.73,1.54L98.81,7,107.14,13l-4.35,7.25a27.71,27.71,0,0,1,3.11,4.3l7.85-1.84,3.19,9.85-7.45,3.16q.12,1.29.12,2.55a28.48,28.48,0,0,1-.17,3l7.17,3-3.19,9.85-7.74-1.82a27,27,0,0,1-3.4,4.48l4,6.66-8.34,6.08-5.28-6.13A26.88,26.88,0,0,1,87.39,65l-.68,7.94Zm6.23-51.05A16.43,16.43,0,1,0,99,38.31,16.41,16.41,0,0,0,82.63,21.88Z"/><path class="cls-2" d="M87.32,3.51l.75,8.75A26.18,26.18,0,0,1,93.4,14l5.48-6.37,7.6,5.55-4.31,7.17a26.67,26.67,0,0,1,3.48,4.81l7.77-1.82,2.9,9L109,35.44a27.15,27.15,0,0,1,.16,2.87,26.07,26.07,0,0,1-.22,3.32l7.1,3-2.9,9-7.65-1.8a27.11,27.11,0,0,1-3.78,5l4,6.59L98,68.94,92.8,62.88a26.33,26.33,0,0,1-5.88,1.69l-.67,7.86H76.86l-.71-8.31a26.66,26.66,0,0,1-5.47-2.06L65.3,68.31l-7.6-5.55,4.51-7.5a27,27,0,0,1-3.05-4.63l-8.4,2-2.9-9,8.35-3.54c0-.59-.07-1.18-.07-1.77a27.57,27.57,0,0,1,.24-3.54l-8.19-3.48,2.9-9L60,24.42a26.3,26.3,0,0,1,3.15-4.18l-4.62-7.7L66.16,7l5.94,6.89a25.83,25.83,0,0,1,5.09-1.63l.74-8.75h9.39M82.63,55.23A16.93,16.93,0,1,0,65.78,38.31,16.88,16.88,0,0,0,82.63,55.23M88.24,2.51H77l-.07.91-.69,8a28.09,28.09,0,0,0-3.87,1.24L66.92,6.35l-.6-.7-.75.54L58,11.74l-.74.54.47.78L62,20.12a29,29,0,0,0-2.38,3.16l-8.25-1.93-.9-.21-.28.87-2.9,9-.28.87.84.35,7.5,3.19a29,29,0,0,0-.16,2.91c0,.35,0,.72,0,1.12l-7.7,3.27-.84.36.28.87,2.9,9,.28.88.9-.21,7.65-1.79A29.6,29.6,0,0,0,61,55.34l-4.14,6.91-.47.78.74.54,7.59,5.54.74.55.61-.7,4.88-5.66a27.57,27.57,0,0,0,4.28,1.6l.65,7.62.07.91H87.17l.08-.91.6-7.1a27.88,27.88,0,0,0,4.66-1.34l4.75,5.51.6.7.75-.54,7.59-5.55.74-.54-.47-.78-3.57-5.94a28.29,28.29,0,0,0,3-4l7,1.63.9.21.28-.88,2.9-9,.28-.87-.84-.36L110,41c.09-.92.14-1.82.14-2.69s0-1.48-.09-2.23l6.69-2.84.84-.36-.28-.87-2.9-9-.28-.88-.9.21-7,1.65a27.81,27.81,0,0,0-2.74-3.78l3.94-6.55.47-.78-.74-.54-7.6-5.55-.74-.54-.6.7-5,5.81A27.55,27.55,0,0,0,89,11.44l-.68-8-.08-.91ZM82.63,54.23A15.93,15.93,0,1,1,98.47,38.31,15.9,15.9,0,0,1,82.63,54.23Z"/><rect class="cls-4" x="53.05" y="40.85" width="146.07" height="36.8" rx="5"/><path class="cls-2" d="M194.12,78.15H58.05a5.5,5.5,0,0,1-5.5-5.5V45.85a5.51,5.51,0,0,1,5.5-5.5H194.12a5.51,5.51,0,0,1,5.5,5.5v26.8A5.5,5.5,0,0,1,194.12,78.15ZM58.05,41.35a4.51,4.51,0,0,0-4.5,4.5v26.8a4.5,4.5,0,0,0,4.5,4.5H194.12a4.5,4.5,0,0,0,4.5-4.5V45.85a4.51,4.51,0,0,0-4.5-4.5Z"/><rect class="cls-4" x="53.05" y="80.33" width="146.07" height="36.8" rx="5"/><path class="cls-2" d="M194.12,117.63H58.05a5.5,5.5,0,0,1-5.5-5.5V85.33a5.51,5.51,0,0,1,5.5-5.5H194.12a5.51,5.51,0,0,1,5.5,5.5v26.8A5.5,5.5,0,0,1,194.12,117.63ZM58.05,80.83a4.51,4.51,0,0,0-4.5,4.5v26.8a4.51,4.51,0,0,0,4.5,4.5H194.12a4.51,4.51,0,0,0,4.5-4.5V85.33a4.51,4.51,0,0,0-4.5-4.5Z"/><rect class="cls-4" x="53.05" y="120.01" width="146.07" height="36.8" rx="5"/><path class="cls-2" d="M194.12,157.31H58.05a5.5,5.5,0,0,1-5.5-5.5V125a5.51,5.51,0,0,1,5.5-5.5H194.12a5.51,5.51,0,0,1,5.5,5.5v26.8A5.5,5.5,0,0,1,194.12,157.31ZM58.05,120.51a4.51,4.51,0,0,0-4.5,4.5v26.8a4.51,4.51,0,0,0,4.5,4.5H194.12a4.51,4.51,0,0,0,4.5-4.5V125a4.51,4.51,0,0,0-4.5-4.5Z"/><rect class="cls-4" x="53.05" y="159.69" width="146.07" height="36.8" rx="5"/><path class="cls-2" d="M194.12,197H58.05a5.5,5.5,0,0,1-5.5-5.5v-26.8a5.51,5.51,0,0,1,5.5-5.5H194.12a5.51,5.51,0,0,1,5.5,5.5v26.8A5.5,5.5,0,0,1,194.12,197ZM58.05,160.19a4.51,4.51,0,0,0-4.5,4.5v26.8a4.51,4.51,0,0,0,4.5,4.5H194.12a4.51,4.51,0,0,0,4.5-4.5v-26.8a4.51,4.51,0,0,0-4.5-4.5Z"/><rect class="cls-2" x="160.89" y="49.3" width="1.53" height="18.4"/><rect class="cls-2" x="169.67" y="49.3" width="1.53" height="18.4"/><rect class="cls-2" x="178.45" y="49.3" width="1.53" height="18.4"/><path class="cls-2" d="M61.36,68.06a27.16,27.16,0,0,0-.15-2.87l7.37-3.13-2.9-9-7.77,1.82a27.17,27.17,0,0,0-3.48-4.81l4.3-7.18-7.59-5.54-5.49,6.37A26,26,0,0,0,40.32,42l-.74-8.76H30.19L29.44,42a26.39,26.39,0,0,0-5.08,1.62l-5.94-6.88-7.59,5.54L15.45,50a27.38,27.38,0,0,0-3.16,4.17L3.35,52.07.45,61l8.19,3.48a27.57,27.57,0,0,0-.24,3.54c0,.59,0,1.18.07,1.77L.12,73.37l2.9,9,8.39-2A26.52,26.52,0,0,0,14.47,85L10,92.51l7.6,5.54,5.38-6.24a26.42,26.42,0,0,0,5.47,2l.71,8.32h9.39l.67-7.86a26.49,26.49,0,0,0,5.88-1.69l5.22,6.06,7.59-5.55-4-6.59a26.25,26.25,0,0,0,3.78-5l7.66,1.79,2.9-9-7.1-3A26.07,26.07,0,0,0,61.36,68.06ZM34.88,85A16.93,16.93,0,1,1,51.72,68.06,16.88,16.88,0,0,1,34.88,85Z"/></svg>