<?xml version="1.0" encoding="utf-8"?>
<!-- Generator: Adobe Illustrator 24.3.0, SVG Export Plug-In . SVG Version: 6.00 Build 0)  -->
<svg version="1.1" id="Layer_1" xmlns="http://www.w3.org/2000/svg" xmlns:xlink="http://www.w3.org/1999/xlink" x="0px" y="0px"
	 viewBox="0 0 160 160" style="enable-background:new 0 0 160 160;" xml:space="preserve">
<style type="text/css">
	.st0{fill:#10162F;}
	.st1{fill:#F2FFD9;}
	.st2{fill:#FFFFFF;}
	.st3{fill-rule:evenodd;clip-rule:evenodd;fill:#F2FFD9;}
	.st4{fill-rule:evenodd;clip-rule:evenodd;fill:#FFFFFF;filter:url(#Adobe_OpacityMaskFilter);}
	.st5{mask:url(#path-5-inside-1_2_);}
	.st6{clip-path:url(#SVGID_2_);}
	.st7{fill:none;}
</style>
<g>
	<path class="st0" d="M21,0.5h69.8c5.2,0,9.5,4.3,9.5,9.5v140c0,5.2-4.3,9.5-9.5,9.5H21c-5.2,0-9.5-4.3-9.5-9.5V10
		C11.5,4.8,15.8,0.5,21,0.5z"/>
	<path class="st0" d="M90.8,160H21c-5.5,0-10-4.5-10-10V10c0-5.5,4.5-10,10-10h69.8c5.5,0,10,4.5,10,10v140
		C100.8,155.5,96.3,160,90.8,160z M21,1c-5,0-9,4-9,9v140c0,5,4,9,9,9h69.8c5,0,9-4,9-9V10c0-5-4-9-9-9H21z"/>
</g>
<g>
	<path class="st1" d="M11.5,138.1h88.8V150c0,5.2-4.3,9.5-9.5,9.5H21c-5.2,0-9.5-4.3-9.5-9.5V138.1z"/>
	<path class="st0" d="M90.8,160H21c-5.5,0-10-4.5-10-10v-12.4h89.8V150C100.8,155.5,96.3,160,90.8,160z M12,138.6V150c0,5,4,9,9,9
		h69.8c5,0,9-4,9-9v-11.4H12z"/>
</g>
<g>
	<rect x="26.1" y="12.8" class="st2" width="101.1" height="89.6"/>
	<path class="st0" d="M127.7,102.9H25.6V12.3h102.1V102.9z M26.6,101.9h100.1V13.3H26.6V101.9z"/>
</g>
<g>
	<rect x="127.1" y="12.8" class="st2" width="21.4" height="89.6"/>
	<path class="st0" d="M149,102.9h-22.4V12.3H149V102.9z M127.6,101.9H148V13.3h-20.4V101.9z"/>
</g>
<g>
	<path class="st3" d="M101.1,102.6C101.1,102.6,101.1,102.6,101.1,102.6c0-13.1-11.9-23.7-26.5-23.7C59.9,78.9,48,89.5,48,102.6
		c0,0,0,0,0,0H101.1z"/>
</g>
<defs>
	<filter id="Adobe_OpacityMaskFilter" filterUnits="userSpaceOnUse" x="47" y="77.9" width="55.1" height="25.7">
		<feColorMatrix  type="matrix" values="1 0 0 0 0  0 1 0 0 0  0 0 1 0 0  0 0 0 1 0"/>
	</filter>
</defs>
<mask maskUnits="userSpaceOnUse" x="47" y="77.9" width="55.1" height="25.7" id="path-5-inside-1_2_">
	<path class="st4" d="M101.1,102.6C101.1,102.6,101.1,102.6,101.1,102.6c0-13.1-11.9-23.7-26.5-23.7C59.9,78.9,48,89.5,48,102.6
		c0,0,0,0,0,0H101.1z"/>
</mask>
<g class="st5">
	<path class="st0" d="M101.1,102.6v1h1v-1H101.1z M48,102.6h-1v1h1V102.6z M100.1,102.6L100.1,102.6L100.1,102.6L100.1,102.6
		L100.1,102.6L100.1,102.6L100.1,102.6L100.1,102.6L100.1,102.6L100.1,102.6L100.1,102.6L100.1,102.6L100.1,102.6L100.1,102.6
		L100.1,102.6L100.1,102.6L100.1,102.6L100.1,102.6L100.1,102.6L100.1,102.6L100.1,102.6L100.1,102.6L100.1,102.6L100.1,102.6
		L100.1,102.6L100.1,102.6L100.1,102.6L100.1,102.6L100.1,102.6L100.1,102.6L100.1,102.6L100.1,102.6L100.1,102.6L100.1,102.6
		L100.1,102.6L100.1,102.6L100.1,102.6L100.1,102.6L100.1,102.6L100.1,102.6L100.1,102.6L100.1,102.6L100.1,102.6L100.1,102.6
		L100.1,102.6L100.1,102.6L100.1,102.6L100.1,102.6L100.1,102.6L100.1,102.6L100.1,102.6L100.1,102.6L100.1,102.6L100.1,102.6
		L100.1,102.6L100.1,102.6L100.1,102.6L100.1,102.6L100.1,102.6L100.1,102.6L100.1,102.6L100.1,102.6L100.1,102.6L100.1,102.6
		L100.1,102.6L100.1,102.6L100.1,102.6L100.1,102.6L100.1,102.6L100.1,102.6L100.1,102.6L100.1,102.6L100.1,102.6L100.1,102.6
		L100.1,102.6L100.1,102.6L100.1,102.6L100.1,102.6L100.1,102.6L100.1,102.6L100.1,102.6L100.1,102.6L100.1,102.6L100.1,102.6
		L100.1,102.6L100.1,102.6L100.1,102.6L100.1,102.6L100.1,102.6L100.1,102.6L100.1,102.6L100.1,102.6L100.1,102.6L100.1,102.6
		L100.1,102.6L100.1,102.6L100.1,102.6L100.1,102.6L100.1,102.6L100.1,102.6L100.1,102.6L100.1,102.6L100.1,102.6L100.1,102.6
		L100.1,102.6L100.1,102.6L100.1,102.6L100.1,102.6L100.1,102.6L100.1,102.6L100.1,102.6L100.1,102.6L100.1,102.6L100.1,102.6
		L100.1,102.6L100.1,102.6L100.1,102.6L100.1,102.6L100.1,102.6L100.1,102.6L100.1,102.6L100.1,102.6L100.1,102.6L100.1,102.6
		L100.1,102.6L100.1,102.6L100.1,102.6L100.1,102.6L100.1,102.6L100.1,102.6L100.1,102.6L100.1,102.6L100.1,102.6L100.1,102.6
		L100.1,102.6L100.1,102.6L100.1,102.6L100.1,102.6L100.1,102.6L100.1,102.6L100.1,102.6L100.1,102.6L100.1,102.6L100.1,102.6
		L100.1,102.6L100.1,102.6L100.1,102.6L100.1,102.6L100.1,102.6L100.1,102.6L100.1,102.6L100.1,102.6L100.1,102.6L100.1,102.6
		L100.1,102.6L100.1,102.6L100.1,102.6L100.1,102.6L100.1,102.6L100.1,102.6L100.1,102.6L100.1,102.6L100.1,102.6L100.1,102.6
		L100.1,102.6L100.1,102.6L100.1,102.6L100.1,102.6L100.1,102.6L100.1,102.6L100.1,102.6L100.1,102.6L100.1,102.6L100.1,102.6
		L100.1,102.6L100.1,102.6L100.1,102.6L100.1,102.6L100.1,102.6L100.1,102.6L100.1,102.6L100.1,102.6L100.1,102.6L100.1,102.6
		L100.1,102.6L100.1,102.6L100.1,102.6L100.1,102.6L100.1,102.6L100.1,102.6L100.1,102.6L100.1,102.6L100.1,102.6L100.1,102.6
		L100.1,102.6L100.1,102.6L100.1,102.6L100.1,102.6L100.1,102.6L100.1,102.6L100.1,102.6L100.1,102.6L100.1,102.6L100.1,102.6
		L100.1,102.6L100.1,102.6L100.1,102.6L100.1,102.6L100.1,102.6L100.1,102.6L100.1,102.6L100.1,102.6L100.1,102.6L100.1,102.6
		L100.1,102.6L100.1,102.6L100.1,102.6L100.1,102.6L100.1,102.6L100.1,102.6L100.1,102.6L100.1,102.6L100.1,102.6L100.1,102.6
		L100.1,102.6L100.1,102.6L100.1,102.6L100.1,102.6L100.1,102.6L100.1,102.6L100.1,102.6L100.1,102.6L100.1,102.6L100.1,102.6
		L100.1,102.6L100.1,102.6L100.1,102.6L100.1,102.6L100.1,102.6L100.1,102.6L100.1,102.6L100.1,102.6L100.1,102.6L100.1,102.6
		L100.1,102.6L100.1,102.6L100.1,102.6L100.1,102.6L100.1,102.6L100.1,102.6L100.1,102.6L100.1,102.6L100.1,102.6L100.1,102.6
		L100.1,102.6L100.1,102.6L100.1,102.6L100.1,102.6L100.1,102.6L100.1,102.6L100.1,102.6L100.1,102.6L100.1,102.6L100.1,102.6
		L100.1,102.6L100.1,102.6L100.1,102.6L100.1,102.6L100.1,102.6L100.1,102.6L100.1,102.6L100.1,102.6L100.1,102.6L100.1,102.6
		L100.1,102.6L100.1,102.6L100.1,102.6L100.1,102.6L100.1,102.6L100.1,102.6L100.1,102.6L100.1,102.6L100.1,102.6L100.1,102.6
		L100.1,102.6L100.1,102.6L100.1,102.6L100.1,102.6L100.1,102.6L100.1,102.6L100.1,102.6L100.1,102.6L100.1,102.6L100.1,102.6
		L100.1,102.6L100.1,102.6L100.1,102.6L100.1,102.6L100.1,102.6L100.1,102.6L100.1,102.6L100.1,102.6L100.1,102.6L100.1,102.6
		L100.1,102.6L100.1,102.6L100.1,102.6L100.1,102.6L100.1,102.6L100.1,102.6L100.1,102.6L100.1,102.6L100.1,102.6L100.1,102.6
		L100.1,102.6L100.1,102.6L100.1,102.6L100.1,102.6L100.1,102.6L100.1,102.6L100.1,102.6L100.1,102.6L100.1,102.6L100.1,102.6
		L100.1,102.6L100.1,102.6L100.1,102.6L100.1,102.6L100.1,102.6L100.1,102.6L100.1,102.6L100.1,102.6L100.1,102.6L100.1,102.6
		L100.1,102.6L100.1,102.6L100.1,102.6L100.1,102.6L100.1,102.6L100.1,102.6L100.1,102.6L100.1,102.6L100.1,102.6L100.1,102.6
		L100.1,102.6L100.1,102.6L100.1,102.6L100.1,102.6L100.1,102.6L100.1,102.6L100.1,102.6L100.1,102.6L100.1,102.6L100.1,102.6
		L100.1,102.6L100.1,102.6L100.1,102.6L100.1,102.6L100.1,102.6L100.1,102.6L100.1,102.6L100.1,102.6L100.1,102.6L100.1,102.6
		L100.1,102.6L100.1,102.6L100.1,102.6L100.1,102.6L100.1,102.6L100.1,102.6L100.1,102.6L100.1,102.6L100.1,102.6L100.1,102.6
		L100.1,102.6L100.1,102.6L100.1,102.6L100.1,102.6L100.1,102.6L100.1,102.6L100.1,102.6L100.1,102.6L100.1,102.6
		C100.1,102.6,100.1,102.6,100.1,102.6L100.1,102.6L100.1,102.6L100.1,102.6L100.1,102.6L100.1,102.6L100.1,102.6L100.1,102.6
		L100.1,102.6L100.1,102.6L100.1,102.6L100.1,102.6L100.1,102.6L100.1,102.6L100.1,102.6L100.1,102.6L100.1,102.6L100.1,102.6
		L100.1,102.6L100.1,102.6L100.1,102.6L100.1,102.6L100.1,102.6L100.1,102.6L100.1,102.6L100.1,102.6L100.1,102.6L100.1,102.6
		L100.1,102.6L100.1,102.6L100.1,102.6L100.1,102.6L100.1,102.6l2,0l0,0l0,0l0,0l0,0l0,0l0,0l0,0l0,0l0,0l0,0l0,0l0,0l0,0l0,0l0,0
		l0,0l0,0l0,0l0,0l0,0l0,0l0,0l0,0l0,0l0,0l0,0l0,0l0,0l0,0l0,0l0,0l0,0c0,0,0,0,0,0l0,0l0,0l0,0l0,0l0,0l0,0l0,0l0,0l0,0l0,0l0,0
		l0,0l0,0l0,0l0,0l0,0l0,0l0,0l0,0l0,0l0,0l0,0l0,0l0,0l0,0l0,0l0,0l0,0l0,0l0,0l0,0l0,0l0,0l0,0l0,0l0,0l0,0l0,0l0,0l0,0l0,0l0,0
		l0,0l0,0l0,0l0,0l0,0l0,0l0,0l0,0l0,0l0,0l0,0l0,0l0,0l0,0l0,0l0,0l0,0l0,0l0,0l0,0l0,0l0,0l0,0l0,0l0,0l0,0l0,0l0,0l0,0l0,0l0,0
		l0,0l0,0l0,0l0,0l0,0l0,0l0,0l0,0l0,0l0,0l0,0l0,0l0,0l0,0l0,0l0,0l0,0l0,0l0,0l0,0l0,0l0,0l0,0l0,0l0,0l0,0l0,0l0,0l0,0l0,0l0,0
		l0,0l0,0l0,0l0,0l0,0l0,0l0,0l0,0l0,0l0,0l0,0l0,0l0,0l0,0l0,0l0,0l0,0l0,0l0,0l0,0l0,0l0,0l0,0l0,0l0,0l0,0l0,0l0,0l0,0l0,0l0,0
		l0,0l0,0l0,0l0,0l0,0l0,0l0,0l0,0l0,0l0,0l0,0l0,0l0,0l0,0l0,0l0,0l0,0l0,0l0,0l0,0l0,0l0,0l0,0l0,0l0,0l0,0l0,0l0,0l0,0l0,0l0,0
		l0,0l0,0l0,0l0,0l0,0l0,0l0,0l0,0l0,0l0,0l0,0l0,0l0,0l0,0l0,0l0,0l0,0l0,0l0,0l0,0l0,0l0,0l0,0l0,0l0,0l0,0l0,0l0,0l0,0l0,0l0,0
		l0,0l0,0l0,0l0,0l0,0l0,0l0,0l0,0l0,0l0,0l0,0l0,0l0,0l0,0l0,0l0,0l0,0l0,0l0,0l0,0l0,0l0,0l0,0l0,0l0,0l0,0l0,0l0,0l0,0l0,0l0,0
		l0,0l0,0l0,0l0,0l0,0l0,0l0,0l0,0l0,0l0,0l0,0l0,0l0,0l0,0l0,0l0,0l0,0l0,0l0,0l0,0l0,0l0,0l0,0l0,0l0,0l0,0l0,0l0,0l0,0l0,0l0,0
		l0,0l0,0l0,0l0,0l0,0l0,0l0,0l0,0l0,0l0,0l0,0l0,0l0,0l0,0l0,0l0,0l0,0l0,0l0,0l0,0l0,0l0,0l0,0l0,0l0,0l0,0l0,0l0,0l0,0l0,0l0,0
		l0,0l0,0l0,0l0,0l0,0l0,0l0,0l0,0l0,0l0,0l0,0l0,0l0,0l0,0l0,0l0,0l0,0l0,0l0,0l0,0l0,0l0,0l0,0l0,0l0,0l0,0l0,0l0,0l0,0l0,0l0,0
		l0,0l0,0l0,0l0,0l0,0l0,0l0,0l0,0l0,0l0,0l0,0l0,0l0,0l0,0l0,0l0,0l0,0l0,0l0,0l0,0l0,0l0,0l0,0l0,0l0,0l0,0l0,0l0,0l0,0l0,0l0,0
		l0,0l0,0l0,0l0,0l0,0l0,0l0,0l0,0l0,0l0,0l0,0l0,0l0,0l0,0l0,0l0,0l0,0l0,0l0,0l0,0l0,0l0,0l0,0l0,0l0,0l0,0l0,0l0,0l0,0l0,0H100.1
		z M74.5,79.9c14.2,0,25.5,10.3,25.5,22.7h2c0-13.8-12.4-24.7-27.5-24.7V79.9z M49,102.6c0-12.4,11.3-22.7,25.5-22.7v-2
		c-15.1,0-27.5,11-27.5,24.7H49z M49,102.6C49,102.6,49,102.6,49,102.6L49,102.6l-2,0l0,0c0,0,0,0,0,0H49z M48,103.6h53.1v-2H48
		V103.6z"/>
</g>
<g>
	<ellipse class="st0" cx="87.2" cy="94" rx="2.5" ry="2.5"/>
</g>
<g>
	<ellipse class="st0" cx="61.9" cy="94" rx="2.5" ry="2.5"/>
</g>
<g>
	
		<rect x="84.5" y="76.9" transform="matrix(0.4866 -0.8736 0.8736 0.4866 -21.4581 118.2086)" class="st0" width="10.6" height="1"/>
</g>
<g>
	<rect x="58" y="72" transform="matrix(0.8724 -0.4888 0.4888 0.8724 -30.5119 38.5334)" class="st0" width="1" height="11.4"/>
</g>
<g>
	<g>
		<defs>
			<path id="SVGID_1_" d="M127.7,102.9H149V13.4h-21.3V102.9z"/>
		</defs>
		<clipPath id="SVGID_2_">
			<use xlink:href="#SVGID_1_"  style="overflow:visible;"/>
		</clipPath>
		<g class="st6">
			<rect x="148" y="12" class="st7" width="4" height="4"/>
			<rect x="148" y="12" class="st0" width="1" height="1"/>
			<rect x="150" y="14" class="st0" width="1" height="1"/>
		</g>
		<g class="st6">
			<rect x="148" y="16" class="st7" width="4" height="4"/>
			<rect x="148" y="16" class="st0" width="1" height="1"/>
			<rect x="150" y="18" class="st0" width="1" height="1"/>
		</g>
		<g class="st6">
			<rect x="148" y="20" class="st7" width="4" height="4"/>
			<rect x="148" y="20" class="st0" width="1" height="1"/>
			<rect x="150" y="22" class="st0" width="1" height="1"/>
		</g>
		<g class="st6">
			<rect x="148" y="24" class="st7" width="4" height="4"/>
			<rect x="148" y="24" class="st0" width="1" height="1"/>
			<rect x="150" y="26" class="st0" width="1" height="1"/>
		</g>
		<g class="st6">
			<rect x="148" y="28" class="st7" width="4" height="4"/>
			<rect x="148" y="28" class="st0" width="1" height="1"/>
			<rect x="150" y="30" class="st0" width="1" height="1"/>
		</g>
		<g class="st6">
			<rect x="148" y="32" class="st7" width="4" height="4"/>
			<rect x="148" y="32" class="st0" width="1" height="1"/>
			<rect x="150" y="34" class="st0" width="1" height="1"/>
		</g>
		<g class="st6">
			<rect x="148" y="36" class="st7" width="4" height="4"/>
			<rect x="148" y="36" class="st0" width="1" height="1"/>
			<rect x="150" y="38" class="st0" width="1" height="1"/>
		</g>
		<g class="st6">
			<rect x="148" y="40" class="st7" width="4" height="4"/>
			<rect x="148" y="40" class="st0" width="1" height="1"/>
			<rect x="150" y="42" class="st0" width="1" height="1"/>
		</g>
		<g class="st6">
			<rect x="148" y="44" class="st7" width="4" height="4"/>
			<rect x="148" y="44" class="st0" width="1" height="1"/>
			<rect x="150" y="46" class="st0" width="1" height="1"/>
		</g>
		<g class="st6">
			<rect x="148" y="48" class="st7" width="4" height="4"/>
			<rect x="148" y="48" class="st0" width="1" height="1"/>
			<rect x="150" y="50" class="st0" width="1" height="1"/>
		</g>
		<g class="st6">
			<rect x="148" y="52" class="st7" width="4" height="4"/>
			<rect x="148" y="52" class="st0" width="1" height="1"/>
			<rect x="150" y="54" class="st0" width="1" height="1"/>
		</g>
		<g class="st6">
			<rect x="148" y="56" class="st7" width="4" height="4"/>
			<rect x="148" y="56" class="st0" width="1" height="1"/>
			<rect x="150" y="58" class="st0" width="1" height="1"/>
		</g>
		<g class="st6">
			<rect x="148" y="60" class="st7" width="4" height="4"/>
			<rect x="148" y="60" class="st0" width="1" height="1"/>
			<rect x="150" y="62" class="st0" width="1" height="1"/>
		</g>
		<g class="st6">
			<rect x="148" y="64" class="st7" width="4" height="4"/>
			<rect x="148" y="64" class="st0" width="1" height="1"/>
			<rect x="150" y="66" class="st0" width="1" height="1"/>
		</g>
		<g class="st6">
			<rect x="148" y="68" class="st7" width="4" height="4"/>
			<rect x="148" y="68" class="st0" width="1" height="1"/>
			<rect x="150" y="70" class="st0" width="1" height="1"/>
		</g>
		<g class="st6">
			<rect x="148" y="72" class="st7" width="4" height="4"/>
			<rect x="148" y="72" class="st0" width="1" height="1"/>
			<rect x="150" y="74" class="st0" width="1" height="1"/>
		</g>
		<g class="st6">
			<rect x="148" y="76" class="st7" width="4" height="4"/>
			<rect x="148" y="76" class="st0" width="1" height="1"/>
			<rect x="150" y="78" class="st0" width="1" height="1"/>
		</g>
		<g class="st6">
			<rect x="148" y="80" class="st7" width="4" height="4"/>
			<rect x="148" y="80" class="st0" width="1" height="1"/>
			<rect x="150" y="82" class="st0" width="1" height="1"/>
		</g>
		<g class="st6">
			<rect x="148" y="84" class="st7" width="4" height="4"/>
			<rect x="148" y="84" class="st0" width="1" height="1"/>
			<rect x="150" y="86" class="st0" width="1" height="1"/>
		</g>
		<g class="st6">
			<rect x="148" y="88" class="st7" width="4" height="4"/>
			<rect x="148" y="88" class="st0" width="1" height="1"/>
			<rect x="150" y="90" class="st0" width="1" height="1"/>
		</g>
		<g class="st6">
			<rect x="148" y="92" class="st7" width="4" height="4"/>
			<rect x="148" y="92" class="st0" width="1" height="1"/>
			<rect x="150" y="94" class="st0" width="1" height="1"/>
		</g>
		<g class="st6">
			<rect x="148" y="96" class="st7" width="4" height="4"/>
			<rect x="148" y="96" class="st0" width="1" height="1"/>
			<rect x="150" y="98" class="st0" width="1" height="1"/>
		</g>
		<g class="st6">
			<rect x="148" y="100" class="st7" width="4" height="4"/>
			<rect x="148" y="100" class="st0" width="1" height="1"/>
			<rect x="150" y="102" class="st0" width="1" height="1"/>
		</g>
		<g class="st6">
			<rect x="144" y="12" class="st7" width="4" height="4"/>
			<rect x="144" y="12" class="st0" width="1" height="1"/>
			<rect x="146" y="14" class="st0" width="1" height="1"/>
		</g>
		<g class="st6">
			<rect x="144" y="16" class="st7" width="4" height="4"/>
			<rect x="144" y="16" class="st0" width="1" height="1"/>
			<rect x="146" y="18" class="st0" width="1" height="1"/>
		</g>
		<g class="st6">
			<rect x="144" y="20" class="st7" width="4" height="4"/>
			<rect x="144" y="20" class="st0" width="1" height="1"/>
			<rect x="146" y="22" class="st0" width="1" height="1"/>
		</g>
		<g class="st6">
			<rect x="144" y="24" class="st7" width="4" height="4"/>
			<rect x="144" y="24" class="st0" width="1" height="1"/>
			<rect x="146" y="26" class="st0" width="1" height="1"/>
		</g>
		<g class="st6">
			<rect x="144" y="28" class="st7" width="4" height="4"/>
			<rect x="144" y="28" class="st0" width="1" height="1"/>
			<rect x="146" y="30" class="st0" width="1" height="1"/>
		</g>
		<g class="st6">
			<rect x="144" y="32" class="st7" width="4" height="4"/>
			<rect x="144" y="32" class="st0" width="1" height="1"/>
			<rect x="146" y="34" class="st0" width="1" height="1"/>
		</g>
		<g class="st6">
			<rect x="144" y="36" class="st7" width="4" height="4"/>
			<rect x="144" y="36" class="st0" width="1" height="1"/>
			<rect x="146" y="38" class="st0" width="1" height="1"/>
		</g>
		<g class="st6">
			<rect x="144" y="40" class="st7" width="4" height="4"/>
			<rect x="144" y="40" class="st0" width="1" height="1"/>
			<rect x="146" y="42" class="st0" width="1" height="1"/>
		</g>
		<g class="st6">
			<rect x="144" y="44" class="st7" width="4" height="4"/>
			<rect x="144" y="44" class="st0" width="1" height="1"/>
			<rect x="146" y="46" class="st0" width="1" height="1"/>
		</g>
		<g class="st6">
			<rect x="144" y="48" class="st7" width="4" height="4"/>
			<rect x="144" y="48" class="st0" width="1" height="1"/>
			<rect x="146" y="50" class="st0" width="1" height="1"/>
		</g>
		<g class="st6">
			<rect x="144" y="52" class="st7" width="4" height="4"/>
			<rect x="144" y="52" class="st0" width="1" height="1"/>
			<rect x="146" y="54" class="st0" width="1" height="1"/>
		</g>
		<g class="st6">
			<rect x="144" y="56" class="st7" width="4" height="4"/>
			<rect x="144" y="56" class="st0" width="1" height="1"/>
			<rect x="146" y="58" class="st0" width="1" height="1"/>
		</g>
		<g class="st6">
			<rect x="144" y="60" class="st7" width="4" height="4"/>
			<rect x="144" y="60" class="st0" width="1" height="1"/>
			<rect x="146" y="62" class="st0" width="1" height="1"/>
		</g>
		<g class="st6">
			<rect x="144" y="64" class="st7" width="4" height="4"/>
			<rect x="144" y="64" class="st0" width="1" height="1"/>
			<rect x="146" y="66" class="st0" width="1" height="1"/>
		</g>
		<g class="st6">
			<rect x="144" y="68" class="st7" width="4" height="4"/>
			<rect x="144" y="68" class="st0" width="1" height="1"/>
			<rect x="146" y="70" class="st0" width="1" height="1"/>
		</g>
		<g class="st6">
			<rect x="144" y="72" class="st7" width="4" height="4"/>
			<rect x="144" y="72" class="st0" width="1" height="1"/>
			<rect x="146" y="74" class="st0" width="1" height="1"/>
		</g>
		<g class="st6">
			<rect x="144" y="76" class="st7" width="4" height="4"/>
			<rect x="144" y="76" class="st0" width="1" height="1"/>
			<rect x="146" y="78" class="st0" width="1" height="1"/>
		</g>
		<g class="st6">
			<rect x="144" y="80" class="st7" width="4" height="4"/>
			<rect x="144" y="80" class="st0" width="1" height="1"/>
			<rect x="146" y="82" class="st0" width="1" height="1"/>
		</g>
		<g class="st6">
			<rect x="144" y="84" class="st7" width="4" height="4"/>
			<rect x="144" y="84" class="st0" width="1" height="1"/>
			<rect x="146" y="86" class="st0" width="1" height="1"/>
		</g>
		<g class="st6">
			<rect x="144" y="88" class="st7" width="4" height="4"/>
			<rect x="144" y="88" class="st0" width="1" height="1"/>
			<rect x="146" y="90" class="st0" width="1" height="1"/>
		</g>
		<g class="st6">
			<rect x="144" y="92" class="st7" width="4" height="4"/>
			<rect x="144" y="92" class="st0" width="1" height="1"/>
			<rect x="146" y="94" class="st0" width="1" height="1"/>
		</g>
		<g class="st6">
			<rect x="144" y="96" class="st7" width="4" height="4"/>
			<rect x="144" y="96" class="st0" width="1" height="1"/>
			<rect x="146" y="98" class="st0" width="1" height="1"/>
		</g>
		<g class="st6">
			<rect x="144" y="100" class="st7" width="4" height="4"/>
			<rect x="144" y="100" class="st0" width="1" height="1"/>
			<rect x="146" y="102" class="st0" width="1" height="1"/>
		</g>
		<g class="st6">
			<rect x="140" y="12" class="st7" width="4" height="4"/>
			<rect x="140" y="12" class="st0" width="1" height="1"/>
			<rect x="142" y="14" class="st0" width="1" height="1"/>
		</g>
		<g class="st6">
			<rect x="140" y="16" class="st7" width="4" height="4"/>
			<rect x="140" y="16" class="st0" width="1" height="1"/>
			<rect x="142" y="18" class="st0" width="1" height="1"/>
		</g>
		<g class="st6">
			<rect x="140" y="20" class="st7" width="4" height="4"/>
			<rect x="140" y="20" class="st0" width="1" height="1"/>
			<rect x="142" y="22" class="st0" width="1" height="1"/>
		</g>
		<g class="st6">
			<rect x="140" y="24" class="st7" width="4" height="4"/>
			<rect x="140" y="24" class="st0" width="1" height="1"/>
			<rect x="142" y="26" class="st0" width="1" height="1"/>
		</g>
		<g class="st6">
			<rect x="140" y="28" class="st7" width="4" height="4"/>
			<rect x="140" y="28" class="st0" width="1" height="1"/>
			<rect x="142" y="30" class="st0" width="1" height="1"/>
		</g>
		<g class="st6">
			<rect x="140" y="32" class="st7" width="4" height="4"/>
			<rect x="140" y="32" class="st0" width="1" height="1"/>
			<rect x="142" y="34" class="st0" width="1" height="1"/>
		</g>
		<g class="st6">
			<rect x="140" y="36" class="st7" width="4" height="4"/>
			<rect x="140" y="36" class="st0" width="1" height="1"/>
			<rect x="142" y="38" class="st0" width="1" height="1"/>
		</g>
		<g class="st6">
			<rect x="140" y="40" class="st7" width="4" height="4"/>
			<rect x="140" y="40" class="st0" width="1" height="1"/>
			<rect x="142" y="42" class="st0" width="1" height="1"/>
		</g>
		<g class="st6">
			<rect x="140" y="44" class="st7" width="4" height="4"/>
			<rect x="140" y="44" class="st0" width="1" height="1"/>
			<rect x="142" y="46" class="st0" width="1" height="1"/>
		</g>
		<g class="st6">
			<rect x="140" y="48" class="st7" width="4" height="4"/>
			<rect x="140" y="48" class="st0" width="1" height="1"/>
			<rect x="142" y="50" class="st0" width="1" height="1"/>
		</g>
		<g class="st6">
			<rect x="140" y="52" class="st7" width="4" height="4"/>
			<rect x="140" y="52" class="st0" width="1" height="1"/>
			<rect x="142" y="54" class="st0" width="1" height="1"/>
		</g>
		<g class="st6">
			<rect x="140" y="56" class="st7" width="4" height="4"/>
			<rect x="140" y="56" class="st0" width="1" height="1"/>
			<rect x="142" y="58" class="st0" width="1" height="1"/>
		</g>
		<g class="st6">
			<rect x="140" y="60" class="st7" width="4" height="4"/>
			<rect x="140" y="60" class="st0" width="1" height="1"/>
			<rect x="142" y="62" class="st0" width="1" height="1"/>
		</g>
		<g class="st6">
			<rect x="140" y="64" class="st7" width="4" height="4"/>
			<rect x="140" y="64" class="st0" width="1" height="1"/>
			<rect x="142" y="66" class="st0" width="1" height="1"/>
		</g>
		<g class="st6">
			<rect x="140" y="68" class="st7" width="4" height="4"/>
			<rect x="140" y="68" class="st0" width="1" height="1"/>
			<rect x="142" y="70" class="st0" width="1" height="1"/>
		</g>
		<g class="st6">
			<rect x="140" y="72" class="st7" width="4" height="4"/>
			<rect x="140" y="72" class="st0" width="1" height="1"/>
			<rect x="142" y="74" class="st0" width="1" height="1"/>
		</g>
		<g class="st6">
			<rect x="140" y="76" class="st7" width="4" height="4"/>
			<rect x="140" y="76" class="st0" width="1" height="1"/>
			<rect x="142" y="78" class="st0" width="1" height="1"/>
		</g>
		<g class="st6">
			<rect x="140" y="80" class="st7" width="4" height="4"/>
			<rect x="140" y="80" class="st0" width="1" height="1"/>
			<rect x="142" y="82" class="st0" width="1" height="1"/>
		</g>
		<g class="st6">
			<rect x="140" y="84" class="st7" width="4" height="4"/>
			<rect x="140" y="84" class="st0" width="1" height="1"/>
			<rect x="142" y="86" class="st0" width="1" height="1"/>
		</g>
		<g class="st6">
			<rect x="140" y="88" class="st7" width="4" height="4"/>
			<rect x="140" y="88" class="st0" width="1" height="1"/>
			<rect x="142" y="90" class="st0" width="1" height="1"/>
		</g>
		<g class="st6">
			<rect x="140" y="92" class="st7" width="4" height="4"/>
			<rect x="140" y="92" class="st0" width="1" height="1"/>
			<rect x="142" y="94" class="st0" width="1" height="1"/>
		</g>
		<g class="st6">
			<rect x="140" y="96" class="st7" width="4" height="4"/>
			<rect x="140" y="96" class="st0" width="1" height="1"/>
			<rect x="142" y="98" class="st0" width="1" height="1"/>
		</g>
		<g class="st6">
			<rect x="140" y="100" class="st7" width="4" height="4"/>
			<rect x="140" y="100" class="st0" width="1" height="1"/>
			<rect x="142" y="102" class="st0" width="1" height="1"/>
		</g>
		<g class="st6">
			<rect x="136" y="12" class="st7" width="4" height="4"/>
			<rect x="136" y="12" class="st0" width="1" height="1"/>
			<rect x="138" y="14" class="st0" width="1" height="1"/>
		</g>
		<g class="st6">
			<rect x="136" y="16" class="st7" width="4" height="4"/>
			<rect x="136" y="16" class="st0" width="1" height="1"/>
			<rect x="138" y="18" class="st0" width="1" height="1"/>
		</g>
		<g class="st6">
			<rect x="136" y="20" class="st7" width="4" height="4"/>
			<rect x="136" y="20" class="st0" width="1" height="1"/>
			<rect x="138" y="22" class="st0" width="1" height="1"/>
		</g>
		<g class="st6">
			<rect x="136" y="24" class="st7" width="4" height="4"/>
			<rect x="136" y="24" class="st0" width="1" height="1"/>
			<rect x="138" y="26" class="st0" width="1" height="1"/>
		</g>
		<g class="st6">
			<rect x="136" y="28" class="st7" width="4" height="4"/>
			<rect x="136" y="28" class="st0" width="1" height="1"/>
			<rect x="138" y="30" class="st0" width="1" height="1"/>
		</g>
		<g class="st6">
			<rect x="136" y="32" class="st7" width="4" height="4"/>
			<rect x="136" y="32" class="st0" width="1" height="1"/>
			<rect x="138" y="34" class="st0" width="1" height="1"/>
		</g>
		<g class="st6">
			<rect x="136" y="36" class="st7" width="4" height="4"/>
			<rect x="136" y="36" class="st0" width="1" height="1"/>
			<rect x="138" y="38" class="st0" width="1" height="1"/>
		</g>
		<g class="st6">
			<rect x="136" y="40" class="st7" width="4" height="4"/>
			<rect x="136" y="40" class="st0" width="1" height="1"/>
			<rect x="138" y="42" class="st0" width="1" height="1"/>
		</g>
		<g class="st6">
			<rect x="136" y="44" class="st7" width="4" height="4"/>
			<rect x="136" y="44" class="st0" width="1" height="1"/>
			<rect x="138" y="46" class="st0" width="1" height="1"/>
		</g>
		<g class="st6">
			<rect x="136" y="48" class="st7" width="4" height="4"/>
			<rect x="136" y="48" class="st0" width="1" height="1"/>
			<rect x="138" y="50" class="st0" width="1" height="1"/>
		</g>
		<g class="st6">
			<rect x="136" y="52" class="st7" width="4" height="4"/>
			<rect x="136" y="52" class="st0" width="1" height="1"/>
			<rect x="138" y="54" class="st0" width="1" height="1"/>
		</g>
		<g class="st6">
			<rect x="136" y="56" class="st7" width="4" height="4"/>
			<rect x="136" y="56" class="st0" width="1" height="1"/>
			<rect x="138" y="58" class="st0" width="1" height="1"/>
		</g>
		<g class="st6">
			<rect x="136" y="60" class="st7" width="4" height="4"/>
			<rect x="136" y="60" class="st0" width="1" height="1"/>
			<rect x="138" y="62" class="st0" width="1" height="1"/>
		</g>
		<g class="st6">
			<rect x="136" y="64" class="st7" width="4" height="4"/>
			<rect x="136" y="64" class="st0" width="1" height="1"/>
			<rect x="138" y="66" class="st0" width="1" height="1"/>
		</g>
		<g class="st6">
			<rect x="136" y="68" class="st7" width="4" height="4"/>
			<rect x="136" y="68" class="st0" width="1" height="1"/>
			<rect x="138" y="70" class="st0" width="1" height="1"/>
		</g>
		<g class="st6">
			<rect x="136" y="72" class="st7" width="4" height="4"/>
			<rect x="136" y="72" class="st0" width="1" height="1"/>
			<rect x="138" y="74" class="st0" width="1" height="1"/>
		</g>
		<g class="st6">
			<rect x="136" y="76" class="st7" width="4" height="4"/>
			<rect x="136" y="76" class="st0" width="1" height="1"/>
			<rect x="138" y="78" class="st0" width="1" height="1"/>
		</g>
		<g class="st6">
			<rect x="136" y="80" class="st7" width="4" height="4"/>
			<rect x="136" y="80" class="st0" width="1" height="1"/>
			<rect x="138" y="82" class="st0" width="1" height="1"/>
		</g>
		<g class="st6">
			<rect x="136" y="84" class="st7" width="4" height="4"/>
			<rect x="136" y="84" class="st0" width="1" height="1"/>
			<rect x="138" y="86" class="st0" width="1" height="1"/>
		</g>
		<g class="st6">
			<rect x="136" y="88" class="st7" width="4" height="4"/>
			<rect x="136" y="88" class="st0" width="1" height="1"/>
			<rect x="138" y="90" class="st0" width="1" height="1"/>
		</g>
		<g class="st6">
			<rect x="136" y="92" class="st7" width="4" height="4"/>
			<rect x="136" y="92" class="st0" width="1" height="1"/>
			<rect x="138" y="94" class="st0" width="1" height="1"/>
		</g>
		<g class="st6">
			<rect x="136" y="96" class="st7" width="4" height="4"/>
			<rect x="136" y="96" class="st0" width="1" height="1"/>
			<rect x="138" y="98" class="st0" width="1" height="1"/>
		</g>
		<g class="st6">
			<rect x="136" y="100" class="st7" width="4" height="4"/>
			<rect x="136" y="100" class="st0" width="1" height="1"/>
			<rect x="138" y="102" class="st0" width="1" height="1"/>
		</g>
		<g class="st6">
			<rect x="132" y="12" class="st7" width="4" height="4"/>
			<rect x="132" y="12" class="st0" width="1" height="1"/>
			<rect x="134" y="14" class="st0" width="1" height="1"/>
		</g>
		<g class="st6">
			<rect x="132" y="16" class="st7" width="4" height="4"/>
			<rect x="132" y="16" class="st0" width="1" height="1"/>
			<rect x="134" y="18" class="st0" width="1" height="1"/>
		</g>
		<g class="st6">
			<rect x="132" y="20" class="st7" width="4" height="4"/>
			<rect x="132" y="20" class="st0" width="1" height="1"/>
			<rect x="134" y="22" class="st0" width="1" height="1"/>
		</g>
		<g class="st6">
			<rect x="132" y="24" class="st7" width="4" height="4"/>
			<rect x="132" y="24" class="st0" width="1" height="1"/>
			<rect x="134" y="26" class="st0" width="1" height="1"/>
		</g>
		<g class="st6">
			<rect x="132" y="28" class="st7" width="4" height="4"/>
			<rect x="132" y="28" class="st0" width="1" height="1"/>
			<rect x="134" y="30" class="st0" width="1" height="1"/>
		</g>
		<g class="st6">
			<rect x="132" y="32" class="st7" width="4" height="4"/>
			<rect x="132" y="32" class="st0" width="1" height="1"/>
			<rect x="134" y="34" class="st0" width="1" height="1"/>
		</g>
		<g class="st6">
			<rect x="132" y="36" class="st7" width="4" height="4"/>
			<rect x="132" y="36" class="st0" width="1" height="1"/>
			<rect x="134" y="38" class="st0" width="1" height="1"/>
		</g>
		<g class="st6">
			<rect x="132" y="40" class="st7" width="4" height="4"/>
			<rect x="132" y="40" class="st0" width="1" height="1"/>
			<rect x="134" y="42" class="st0" width="1" height="1"/>
		</g>
		<g class="st6">
			<rect x="132" y="44" class="st7" width="4" height="4"/>
			<rect x="132" y="44" class="st0" width="1" height="1"/>
			<rect x="134" y="46" class="st0" width="1" height="1"/>
		</g>
		<g class="st6">
			<rect x="132" y="48" class="st7" width="4" height="4"/>
			<rect x="132" y="48" class="st0" width="1" height="1"/>
			<rect x="134" y="50" class="st0" width="1" height="1"/>
		</g>
		<g class="st6">
			<rect x="132" y="52" class="st7" width="4" height="4"/>
			<rect x="132" y="52" class="st0" width="1" height="1"/>
			<rect x="134" y="54" class="st0" width="1" height="1"/>
		</g>
		<g class="st6">
			<rect x="132" y="56" class="st7" width="4" height="4"/>
			<rect x="132" y="56" class="st0" width="1" height="1"/>
			<rect x="134" y="58" class="st0" width="1" height="1"/>
		</g>
		<g class="st6">
			<rect x="132" y="60" class="st7" width="4" height="4"/>
			<rect x="132" y="60" class="st0" width="1" height="1"/>
			<rect x="134" y="62" class="st0" width="1" height="1"/>
		</g>
		<g class="st6">
			<rect x="132" y="64" class="st7" width="4" height="4"/>
			<rect x="132" y="64" class="st0" width="1" height="1"/>
			<rect x="134" y="66" class="st0" width="1" height="1"/>
		</g>
		<g class="st6">
			<rect x="132" y="68" class="st7" width="4" height="4"/>
			<rect x="132" y="68" class="st0" width="1" height="1"/>
			<rect x="134" y="70" class="st0" width="1" height="1"/>
		</g>
		<g class="st6">
			<rect x="132" y="72" class="st7" width="4" height="4"/>
			<rect x="132" y="72" class="st0" width="1" height="1"/>
			<rect x="134" y="74" class="st0" width="1" height="1"/>
		</g>
		<g class="st6">
			<rect x="132" y="76" class="st7" width="4" height="4"/>
			<rect x="132" y="76" class="st0" width="1" height="1"/>
			<rect x="134" y="78" class="st0" width="1" height="1"/>
		</g>
		<g class="st6">
			<rect x="132" y="80" class="st7" width="4" height="4"/>
			<rect x="132" y="80" class="st0" width="1" height="1"/>
			<rect x="134" y="82" class="st0" width="1" height="1"/>
		</g>
		<g class="st6">
			<rect x="132" y="84" class="st7" width="4" height="4"/>
			<rect x="132" y="84" class="st0" width="1" height="1"/>
			<rect x="134" y="86" class="st0" width="1" height="1"/>
		</g>
		<g class="st6">
			<rect x="132" y="88" class="st7" width="4" height="4"/>
			<rect x="132" y="88" class="st0" width="1" height="1"/>
			<rect x="134" y="90" class="st0" width="1" height="1"/>
		</g>
		<g class="st6">
			<rect x="132" y="92" class="st7" width="4" height="4"/>
			<rect x="132" y="92" class="st0" width="1" height="1"/>
			<rect x="134" y="94" class="st0" width="1" height="1"/>
		</g>
		<g class="st6">
			<rect x="132" y="96" class="st7" width="4" height="4"/>
			<rect x="132" y="96" class="st0" width="1" height="1"/>
			<rect x="134" y="98" class="st0" width="1" height="1"/>
		</g>
		<g class="st6">
			<rect x="132" y="100" class="st7" width="4" height="4"/>
			<rect x="132" y="100" class="st0" width="1" height="1"/>
			<rect x="134" y="102" class="st0" width="1" height="1"/>
		</g>
		<g class="st6">
			<rect x="128" y="12" class="st7" width="4" height="4"/>
			<rect x="128" y="12" class="st0" width="1" height="1"/>
			<rect x="130" y="14" class="st0" width="1" height="1"/>
		</g>
		<g class="st6">
			<rect x="128" y="16" class="st7" width="4" height="4"/>
			<rect x="128" y="16" class="st0" width="1" height="1"/>
			<rect x="130" y="18" class="st0" width="1" height="1"/>
		</g>
		<g class="st6">
			<rect x="128" y="20" class="st7" width="4" height="4"/>
			<rect x="128" y="20" class="st0" width="1" height="1"/>
			<rect x="130" y="22" class="st0" width="1" height="1"/>
		</g>
		<g class="st6">
			<rect x="128" y="24" class="st7" width="4" height="4"/>
			<rect x="128" y="24" class="st0" width="1" height="1"/>
			<rect x="130" y="26" class="st0" width="1" height="1"/>
		</g>
		<g class="st6">
			<rect x="128" y="28" class="st7" width="4" height="4"/>
			<rect x="128" y="28" class="st0" width="1" height="1"/>
			<rect x="130" y="30" class="st0" width="1" height="1"/>
		</g>
		<g class="st6">
			<rect x="128" y="32" class="st7" width="4" height="4"/>
			<rect x="128" y="32" class="st0" width="1" height="1"/>
			<rect x="130" y="34" class="st0" width="1" height="1"/>
		</g>
		<g class="st6">
			<rect x="128" y="36" class="st7" width="4" height="4"/>
			<rect x="128" y="36" class="st0" width="1" height="1"/>
			<rect x="130" y="38" class="st0" width="1" height="1"/>
		</g>
		<g class="st6">
			<rect x="128" y="40" class="st7" width="4" height="4"/>
			<rect x="128" y="40" class="st0" width="1" height="1"/>
			<rect x="130" y="42" class="st0" width="1" height="1"/>
		</g>
		<g class="st6">
			<rect x="128" y="44" class="st7" width="4" height="4"/>
			<rect x="128" y="44" class="st0" width="1" height="1"/>
			<rect x="130" y="46" class="st0" width="1" height="1"/>
		</g>
		<g class="st6">
			<rect x="128" y="48" class="st7" width="4" height="4"/>
			<rect x="128" y="48" class="st0" width="1" height="1"/>
			<rect x="130" y="50" class="st0" width="1" height="1"/>
		</g>
		<g class="st6">
			<rect x="128" y="52" class="st7" width="4" height="4"/>
			<rect x="128" y="52" class="st0" width="1" height="1"/>
			<rect x="130" y="54" class="st0" width="1" height="1"/>
		</g>
		<g class="st6">
			<rect x="128" y="56" class="st7" width="4" height="4"/>
			<rect x="128" y="56" class="st0" width="1" height="1"/>
			<rect x="130" y="58" class="st0" width="1" height="1"/>
		</g>
		<g class="st6">
			<rect x="128" y="60" class="st7" width="4" height="4"/>
			<rect x="128" y="60" class="st0" width="1" height="1"/>
			<rect x="130" y="62" class="st0" width="1" height="1"/>
		</g>
		<g class="st6">
			<rect x="128" y="64" class="st7" width="4" height="4"/>
			<rect x="128" y="64" class="st0" width="1" height="1"/>
			<rect x="130" y="66" class="st0" width="1" height="1"/>
		</g>
		<g class="st6">
			<rect x="128" y="68" class="st7" width="4" height="4"/>
			<rect x="128" y="68" class="st0" width="1" height="1"/>
			<rect x="130" y="70" class="st0" width="1" height="1"/>
		</g>
		<g class="st6">
			<rect x="128" y="72" class="st7" width="4" height="4"/>
			<rect x="128" y="72" class="st0" width="1" height="1"/>
			<rect x="130" y="74" class="st0" width="1" height="1"/>
		</g>
		<g class="st6">
			<rect x="128" y="76" class="st7" width="4" height="4"/>
			<rect x="128" y="76" class="st0" width="1" height="1"/>
			<rect x="130" y="78" class="st0" width="1" height="1"/>
		</g>
		<g class="st6">
			<rect x="128" y="80" class="st7" width="4" height="4"/>
			<rect x="128" y="80" class="st0" width="1" height="1"/>
			<rect x="130" y="82" class="st0" width="1" height="1"/>
		</g>
		<g class="st6">
			<rect x="128" y="84" class="st7" width="4" height="4"/>
			<rect x="128" y="84" class="st0" width="1" height="1"/>
			<rect x="130" y="86" class="st0" width="1" height="1"/>
		</g>
		<g class="st6">
			<rect x="128" y="88" class="st7" width="4" height="4"/>
			<rect x="128" y="88" class="st0" width="1" height="1"/>
			<rect x="130" y="90" class="st0" width="1" height="1"/>
		</g>
		<g class="st6">
			<rect x="128" y="92" class="st7" width="4" height="4"/>
			<rect x="128" y="92" class="st0" width="1" height="1"/>
			<rect x="130" y="94" class="st0" width="1" height="1"/>
		</g>
		<g class="st6">
			<rect x="128" y="96" class="st7" width="4" height="4"/>
			<rect x="128" y="96" class="st0" width="1" height="1"/>
			<rect x="130" y="98" class="st0" width="1" height="1"/>
		</g>
		<g class="st6">
			<rect x="128" y="100" class="st7" width="4" height="4"/>
			<rect x="128" y="100" class="st0" width="1" height="1"/>
			<rect x="130" y="102" class="st0" width="1" height="1"/>
		</g>
		<g class="st6">
			<rect x="124" y="12" class="st7" width="4" height="4"/>
			<rect x="124" y="12" class="st0" width="1" height="1"/>
			<rect x="126" y="14" class="st0" width="1" height="1"/>
		</g>
		<g class="st6">
			<rect x="124" y="16" class="st7" width="4" height="4"/>
			<rect x="124" y="16" class="st0" width="1" height="1"/>
			<rect x="126" y="18" class="st0" width="1" height="1"/>
		</g>
		<g class="st6">
			<rect x="124" y="20" class="st7" width="4" height="4"/>
			<rect x="124" y="20" class="st0" width="1" height="1"/>
			<rect x="126" y="22" class="st0" width="1" height="1"/>
		</g>
		<g class="st6">
			<rect x="124" y="24" class="st7" width="4" height="4"/>
			<rect x="124" y="24" class="st0" width="1" height="1"/>
			<rect x="126" y="26" class="st0" width="1" height="1"/>
		</g>
		<g class="st6">
			<rect x="124" y="28" class="st7" width="4" height="4"/>
			<rect x="124" y="28" class="st0" width="1" height="1"/>
			<rect x="126" y="30" class="st0" width="1" height="1"/>
		</g>
		<g class="st6">
			<rect x="124" y="32" class="st7" width="4" height="4"/>
			<rect x="124" y="32" class="st0" width="1" height="1"/>
			<rect x="126" y="34" class="st0" width="1" height="1"/>
		</g>
		<g class="st6">
			<rect x="124" y="36" class="st7" width="4" height="4"/>
			<rect x="124" y="36" class="st0" width="1" height="1"/>
			<rect x="126" y="38" class="st0" width="1" height="1"/>
		</g>
		<g class="st6">
			<rect x="124" y="40" class="st7" width="4" height="4"/>
			<rect x="124" y="40" class="st0" width="1" height="1"/>
			<rect x="126" y="42" class="st0" width="1" height="1"/>
		</g>
		<g class="st6">
			<rect x="124" y="44" class="st7" width="4" height="4"/>
			<rect x="124" y="44" class="st0" width="1" height="1"/>
			<rect x="126" y="46" class="st0" width="1" height="1"/>
		</g>
		<g class="st6">
			<rect x="124" y="48" class="st7" width="4" height="4"/>
			<rect x="124" y="48" class="st0" width="1" height="1"/>
			<rect x="126" y="50" class="st0" width="1" height="1"/>
		</g>
		<g class="st6">
			<rect x="124" y="52" class="st7" width="4" height="4"/>
			<rect x="124" y="52" class="st0" width="1" height="1"/>
			<rect x="126" y="54" class="st0" width="1" height="1"/>
		</g>
		<g class="st6">
			<rect x="124" y="56" class="st7" width="4" height="4"/>
			<rect x="124" y="56" class="st0" width="1" height="1"/>
			<rect x="126" y="58" class="st0" width="1" height="1"/>
		</g>
		<g class="st6">
			<rect x="124" y="60" class="st7" width="4" height="4"/>
			<rect x="124" y="60" class="st0" width="1" height="1"/>
			<rect x="126" y="62" class="st0" width="1" height="1"/>
		</g>
		<g class="st6">
			<rect x="124" y="64" class="st7" width="4" height="4"/>
			<rect x="124" y="64" class="st0" width="1" height="1"/>
			<rect x="126" y="66" class="st0" width="1" height="1"/>
		</g>
		<g class="st6">
			<rect x="124" y="68" class="st7" width="4" height="4"/>
			<rect x="124" y="68" class="st0" width="1" height="1"/>
			<rect x="126" y="70" class="st0" width="1" height="1"/>
		</g>
		<g class="st6">
			<rect x="124" y="72" class="st7" width="4" height="4"/>
			<rect x="124" y="72" class="st0" width="1" height="1"/>
			<rect x="126" y="74" class="st0" width="1" height="1"/>
		</g>
		<g class="st6">
			<rect x="124" y="76" class="st7" width="4" height="4"/>
			<rect x="124" y="76" class="st0" width="1" height="1"/>
			<rect x="126" y="78" class="st0" width="1" height="1"/>
		</g>
		<g class="st6">
			<rect x="124" y="80" class="st7" width="4" height="4"/>
			<rect x="124" y="80" class="st0" width="1" height="1"/>
			<rect x="126" y="82" class="st0" width="1" height="1"/>
		</g>
		<g class="st6">
			<rect x="124" y="84" class="st7" width="4" height="4"/>
			<rect x="124" y="84" class="st0" width="1" height="1"/>
			<rect x="126" y="86" class="st0" width="1" height="1"/>
		</g>
		<g class="st6">
			<rect x="124" y="88" class="st7" width="4" height="4"/>
			<rect x="124" y="88" class="st0" width="1" height="1"/>
			<rect x="126" y="90" class="st0" width="1" height="1"/>
		</g>
		<g class="st6">
			<rect x="124" y="92" class="st7" width="4" height="4"/>
			<rect x="124" y="92" class="st0" width="1" height="1"/>
			<rect x="126" y="94" class="st0" width="1" height="1"/>
		</g>
		<g class="st6">
			<rect x="124" y="96" class="st7" width="4" height="4"/>
			<rect x="124" y="96" class="st0" width="1" height="1"/>
			<rect x="126" y="98" class="st0" width="1" height="1"/>
		</g>
		<g class="st6">
			<rect x="124" y="100" class="st7" width="4" height="4"/>
			<rect x="124" y="100" class="st0" width="1" height="1"/>
			<rect x="126" y="102" class="st0" width="1" height="1"/>
		</g>
	</g>
</g>
<g>
	<path class="st2" d="M85.7,125.6v-11.7c0-0.8-0.7-1.5-1.5-1.5H72.5c-0.8,0-1.5,0.7-1.5,1.5v11.7c0,0.8,0.7,1.5,1.5,1.5h11.7
		C85,127.1,85.7,126.4,85.7,125.6z"/>
	<path class="st2" d="M84.2,127.6H72.5c-1.1,0-2-0.9-2-2v-11.7c0-1.1,0.9-2,2-2h11.7c1.1,0,2,0.9,2,2v11.7
		C86.2,126.7,85.3,127.6,84.2,127.6z M72.5,112.9c-0.6,0-1,0.4-1,1v11.7c0,0.6,0.4,1,1,1h11.7c0.6,0,1-0.4,1-1v-11.7
		c0-0.6-0.4-1-1-1H72.5z"/>
</g>
<g>
	<path class="st2" d="M63.2,125.6v-11.7c0-0.8-0.7-1.5-1.5-1.5H50c-0.8,0-1.5,0.7-1.5,1.5v11.7c0,0.8,0.7,1.5,1.5,1.5h11.7
		C62.6,127.1,63.2,126.4,63.2,125.6z"/>
	<path class="st2" d="M61.7,127.6H50c-1.1,0-2-0.9-2-2v-11.7c0-1.1,0.9-2,2-2h11.7c1.1,0,2,0.9,2,2v11.7
		C63.7,126.7,62.8,127.6,61.7,127.6z M50,112.9c-0.6,0-1,0.4-1,1v11.7c0,0.6,0.4,1,1,1h11.7c0.6,0,1-0.4,1-1v-11.7c0-0.6-0.4-1-1-1
		H50z"/>
</g>
<g>
	<path class="st2" d="M40.8,125.6v-11.7c0-0.8-0.7-1.5-1.5-1.5H27.6c-0.8,0-1.5,0.7-1.5,1.5v11.7c0,0.8,0.7,1.5,1.5,1.5h11.7
		C40.1,127.1,40.8,126.4,40.8,125.6z"/>
	<path class="st2" d="M39.3,127.6H27.6c-1.1,0-2-0.9-2-2v-11.7c0-1.1,0.9-2,2-2h11.7c1.1,0,2,0.9,2,2v11.7
		C41.3,126.7,40.4,127.6,39.3,127.6z M27.6,112.9c-0.6,0-1,0.4-1,1v11.7c0,0.6,0.4,1,1,1h11.7c0.6,0,1-0.4,1-1v-11.7
		c0-0.6-0.4-1-1-1H27.6z"/>
</g>
</svg>
